solid OpenSCAD_Model
  facet normal -1 0 0
    outer loop
      vertex -19 -6 -5.6
      vertex -19 6 5.6
      vertex -19 6 -5.6
    endloop
  endfacet
  facet normal -1 -0 0
    outer loop
      vertex -19 6 5.6
      vertex -19 -6 -5.6
      vertex -19 -6 5.6
    endloop
  endfacet
  facet normal 0 0 1
    outer loop
      vertex 18.7501 0.39055 5.6
      vertex 18.7774 -0.13066 5.6
      vertex 18.7774 0.13066 5.6
    endloop
  endfacet
  facet normal 0 0 1
    outer loop
      vertex 18.7501 0.39055 5.6
      vertex 18.7501 -0.39055 5.6
      vertex 18.7774 -0.13066 5.6
    endloop
  endfacet
  facet normal 0 0 1
    outer loop
      vertex 18.6958 0.646161 5.6
      vertex 18.7501 -0.39055 5.6
      vertex 18.7501 0.39055 5.6
    endloop
  endfacet
  facet normal 0 0 1
    outer loop
      vertex 18.6958 0.646161 5.6
      vertex 18.6958 -0.646161 5.6
      vertex 18.7501 -0.39055 5.6
    endloop
  endfacet
  facet normal 0 0 1
    outer loop
      vertex 18.615 0.894691 5.6
      vertex 18.6958 -0.646161 5.6
      vertex 18.6958 0.646161 5.6
    endloop
  endfacet
  facet normal 0 0 1
    outer loop
      vertex 18.615 0.894691 5.6
      vertex 18.615 -0.894691 5.6
      vertex 18.6958 -0.646161 5.6
    endloop
  endfacet
  facet normal 0 0 1
    outer loop
      vertex 18.5087 1.13342 5.6
      vertex 18.615 -0.894691 5.6
      vertex 18.615 0.894691 5.6
    endloop
  endfacet
  facet normal 0 0 1
    outer loop
      vertex 18.5087 1.13342 5.6
      vertex 18.5087 -1.13342 5.6
      vertex 18.615 -0.894691 5.6
    endloop
  endfacet
  facet normal 0 0 1
    outer loop
      vertex 18.3781 1.35973 5.6
      vertex 18.5087 -1.13342 5.6
      vertex 18.5087 1.13342 5.6
    endloop
  endfacet
  facet normal 0 0 1
    outer loop
      vertex 18.3781 1.35973 5.6
      vertex 18.3781 -1.35973 5.6
      vertex 18.5087 -1.13342 5.6
    endloop
  endfacet
  facet normal 0 0 1
    outer loop
      vertex 18.2245 1.57114 5.6
      vertex 18.3781 -1.35973 5.6
      vertex 18.3781 1.35973 5.6
    endloop
  endfacet
  facet normal 0 0 1
    outer loop
      vertex 18.2245 1.57114 5.6
      vertex 18.2245 -1.57114 5.6
      vertex 18.3781 -1.35973 5.6
    endloop
  endfacet
  facet normal 0 0 1
    outer loop
      vertex 18.0496 1.76534 5.6
      vertex 18.2245 -1.57114 5.6
      vertex 18.2245 1.57114 5.6
    endloop
  endfacet
  facet normal 0 0 1
    outer loop
      vertex 18.0496 1.76534 5.6
      vertex 18.0496 -1.76534 5.6
      vertex 18.2245 -1.57114 5.6
    endloop
  endfacet
  facet normal 0 0 1
    outer loop
      vertex 13.815 6 5.6
      vertex 18.0496 -1.76534 5.6
      vertex 18.0496 1.76534 5.6
    endloop
  endfacet
  facet normal 0 0 1
    outer loop
      vertex 13.815 6 5.6
      vertex 13.815 -6 5.6
      vertex 18.0496 -1.76534 5.6
    endloop
  endfacet
  facet normal -0 0 1
    outer loop
      vertex -19 6 5.6
      vertex 13.815 -6 5.6
      vertex 13.815 6 5.6
    endloop
  endfacet
  facet normal 0 0 1
    outer loop
      vertex 13.815 -6 5.6
      vertex -19 6 5.6
      vertex -19 -6 5.6
    endloop
  endfacet
  facet normal 0 1 0
    outer loop
      vertex -11.35 6 4.75
      vertex 13.815 6 5.6
      vertex 11.35 6 4.75
    endloop
  endfacet
  facet normal 0 1 0
    outer loop
      vertex 13.815 6 5.6
      vertex 11.35 6 -4.75
      vertex 11.35 6 4.75
    endloop
  endfacet
  facet normal 0 1 0
    outer loop
      vertex 11.35 6 -4.75
      vertex 13.815 6 -5.6
      vertex -11.35 6 -4.75
    endloop
  endfacet
  facet normal 0 1 -0
    outer loop
      vertex 13.815 6 -5.6
      vertex 11.35 6 -4.75
      vertex 13.815 6 5.6
    endloop
  endfacet
  facet normal 0 1 0
    outer loop
      vertex 13.815 6 5.6
      vertex -11.35 6 4.75
      vertex -19 6 5.6
    endloop
  endfacet
  facet normal 0 1 -0
    outer loop
      vertex -11.35 6 -4.75
      vertex -19 6 5.6
      vertex -11.35 6 4.75
    endloop
  endfacet
  facet normal 0 1 0
    outer loop
      vertex -11.35 6 -4.75
      vertex -19 6 -5.6
      vertex -19 6 5.6
    endloop
  endfacet
  facet normal 0 1 0
    outer loop
      vertex -19 6 -5.6
      vertex -11.35 6 -4.75
      vertex 13.815 6 -5.6
    endloop
  endfacet
  facet normal 0 0 -1
    outer loop
      vertex 18.7501 -0.39055 -5.6
      vertex 18.7774 0.13066 -5.6
      vertex 18.7774 -0.13066 -5.6
    endloop
  endfacet
  facet normal 0 0 -1
    outer loop
      vertex 18.7501 -0.39055 -5.6
      vertex 18.7501 0.39055 -5.6
      vertex 18.7774 0.13066 -5.6
    endloop
  endfacet
  facet normal 0 0 -1
    outer loop
      vertex 18.6958 -0.646161 -5.6
      vertex 18.7501 0.39055 -5.6
      vertex 18.7501 -0.39055 -5.6
    endloop
  endfacet
  facet normal 0 0 -1
    outer loop
      vertex 18.6958 -0.646161 -5.6
      vertex 18.6958 0.646161 -5.6
      vertex 18.7501 0.39055 -5.6
    endloop
  endfacet
  facet normal 0 0 -1
    outer loop
      vertex 18.615 -0.894691 -5.6
      vertex 18.6958 0.646161 -5.6
      vertex 18.6958 -0.646161 -5.6
    endloop
  endfacet
  facet normal 0 0 -1
    outer loop
      vertex 18.615 -0.894691 -5.6
      vertex 18.615 0.894691 -5.6
      vertex 18.6958 0.646161 -5.6
    endloop
  endfacet
  facet normal 0 0 -1
    outer loop
      vertex 18.5087 -1.13342 -5.6
      vertex 18.615 0.894691 -5.6
      vertex 18.615 -0.894691 -5.6
    endloop
  endfacet
  facet normal 0 0 -1
    outer loop
      vertex 18.5087 -1.13342 -5.6
      vertex 18.5087 1.13342 -5.6
      vertex 18.615 0.894691 -5.6
    endloop
  endfacet
  facet normal 0 0 -1
    outer loop
      vertex 18.3781 -1.35973 -5.6
      vertex 18.5087 1.13342 -5.6
      vertex 18.5087 -1.13342 -5.6
    endloop
  endfacet
  facet normal 0 0 -1
    outer loop
      vertex 18.3781 -1.35973 -5.6
      vertex 18.3781 1.35973 -5.6
      vertex 18.5087 1.13342 -5.6
    endloop
  endfacet
  facet normal 0 0 -1
    outer loop
      vertex 18.2245 -1.57114 -5.6
      vertex 18.3781 1.35973 -5.6
      vertex 18.3781 -1.35973 -5.6
    endloop
  endfacet
  facet normal 0 0 -1
    outer loop
      vertex 18.2245 -1.57114 -5.6
      vertex 18.2245 1.57114 -5.6
      vertex 18.3781 1.35973 -5.6
    endloop
  endfacet
  facet normal 0 0 -1
    outer loop
      vertex 18.0496 -1.76534 -5.6
      vertex 18.2245 1.57114 -5.6
      vertex 18.2245 -1.57114 -5.6
    endloop
  endfacet
  facet normal 0 0 -1
    outer loop
      vertex 18.0496 -1.76534 -5.6
      vertex 18.0496 1.76534 -5.6
      vertex 18.2245 1.57114 -5.6
    endloop
  endfacet
  facet normal 0 0 -1
    outer loop
      vertex 13.815 -6 -5.6
      vertex 18.0496 1.76534 -5.6
      vertex 18.0496 -1.76534 -5.6
    endloop
  endfacet
  facet normal 0 0 -1
    outer loop
      vertex 13.815 -6 -5.6
      vertex 13.815 6 -5.6
      vertex 18.0496 1.76534 -5.6
    endloop
  endfacet
  facet normal 0 0 -1
    outer loop
      vertex -19 -6 -5.6
      vertex 13.815 6 -5.6
      vertex 13.815 -6 -5.6
    endloop
  endfacet
  facet normal -0 0 -1
    outer loop
      vertex 13.815 6 -5.6
      vertex -19 -6 -5.6
      vertex -19 6 -5.6
    endloop
  endfacet
  facet normal 0 -1 0
    outer loop
      vertex -19 -6 5.6
      vertex -11.35 -6 4.75
      vertex 13.815 -6 5.6
    endloop
  endfacet
  facet normal 0 -1 0
    outer loop
      vertex -19 -6 5.6
      vertex -11.35 -6 -4.75
      vertex -11.35 -6 4.75
    endloop
  endfacet
  facet normal 0 -1 0
    outer loop
      vertex 13.815 -6 -5.6
      vertex -11.35 -6 -4.75
      vertex -19 -6 -5.6
    endloop
  endfacet
  facet normal 0 -1 0
    outer loop
      vertex -19 -6 -5.6
      vertex -11.35 -6 -4.75
      vertex -19 -6 5.6
    endloop
  endfacet
  facet normal 0 -1 0
    outer loop
      vertex 11.35 -6 4.75
      vertex 13.815 -6 5.6
      vertex -11.35 -6 4.75
    endloop
  endfacet
  facet normal 0 -1 0
    outer loop
      vertex 11.35 -6 -4.75
      vertex 13.815 -6 5.6
      vertex 11.35 -6 4.75
    endloop
  endfacet
  facet normal 0 -1 0
    outer loop
      vertex 11.35 -6 -4.75
      vertex 13.815 -6 -5.6
      vertex 13.815 -6 5.6
    endloop
  endfacet
  facet normal 0 -1 0
    outer loop
      vertex -11.35 -6 -4.75
      vertex 13.815 -6 -5.6
      vertex 11.35 -6 -4.75
    endloop
  endfacet
  facet normal 1 -0 0
    outer loop
      vertex -11.35 -6 4.75
      vertex -11.35 6 -4.75
      vertex -11.35 6 4.75
    endloop
  endfacet
  facet normal 1 0 0
    outer loop
      vertex -11.35 6 -4.75
      vertex -11.35 -6 4.75
      vertex -11.35 -6 -4.75
    endloop
  endfacet
  facet normal 0 0 -1
    outer loop
      vertex -11.35 -6 4.75
      vertex 11.35 6 4.75
      vertex 11.35 -6 4.75
    endloop
  endfacet
  facet normal -0 0 -1
    outer loop
      vertex 11.35 6 4.75
      vertex -11.35 -6 4.75
      vertex -11.35 6 4.75
    endloop
  endfacet
  facet normal -1 0 0
    outer loop
      vertex 11.35 -6 -4.75
      vertex 11.35 6 4.75
      vertex 11.35 6 -4.75
    endloop
  endfacet
  facet normal -1 -0 0
    outer loop
      vertex 11.35 6 4.75
      vertex 11.35 -6 -4.75
      vertex 11.35 -6 4.75
    endloop
  endfacet
  facet normal -0 0 1
    outer loop
      vertex -11.35 6 -4.75
      vertex 11.35 -6 -4.75
      vertex 11.35 6 -4.75
    endloop
  endfacet
  facet normal 0 0 1
    outer loop
      vertex 11.35 -6 -4.75
      vertex -11.35 6 -4.75
      vertex -11.35 -6 -4.75
    endloop
  endfacet
  facet normal 0.707107 -0.707107 0
    outer loop
      vertex 13.815 -6 5.6
      vertex 18.0496 -1.76534 -5.6
      vertex 18.0496 -1.76534 5.6
    endloop
  endfacet
  facet normal 0.707107 -0.707107 0
    outer loop
      vertex 18.0496 -1.76534 -5.6
      vertex 13.815 -6 5.6
      vertex 13.815 -6 -5.6
    endloop
  endfacet
  facet normal 0.809014 0.58779 0
    outer loop
      vertex 18.3781 1.35973 5.6
      vertex 18.2245 1.57114 -5.6
      vertex 18.2245 1.57114 5.6
    endloop
  endfacet
  facet normal 0.809014 0.58779 0
    outer loop
      vertex 18.2245 1.57114 -5.6
      vertex 18.3781 1.35973 5.6
      vertex 18.3781 1.35973 -5.6
    endloop
  endfacet
  facet normal 0.707107 0.707107 0
    outer loop
      vertex 18.0496 1.76534 5.6
      vertex 13.815 6 -5.6
      vertex 13.815 6 5.6
    endloop
  endfacet
  facet normal 0.707107 0.707107 0
    outer loop
      vertex 13.815 6 -5.6
      vertex 18.0496 1.76534 5.6
      vertex 18.0496 1.76534 -5.6
    endloop
  endfacet
  facet normal 0.743145 0.669131 0
    outer loop
      vertex 18.2245 1.57114 5.6
      vertex 18.0496 1.76534 -5.6
      vertex 18.0496 1.76534 5.6
    endloop
  endfacet
  facet normal 0.743145 0.669131 0
    outer loop
      vertex 18.0496 1.76534 -5.6
      vertex 18.2245 1.57114 5.6
      vertex 18.2245 1.57114 -5.6
    endloop
  endfacet
  facet normal 0.866028 -0.499996 0
    outer loop
      vertex 18.3781 -1.35973 5.6
      vertex 18.5087 -1.13342 -5.6
      vertex 18.5087 -1.13342 5.6
    endloop
  endfacet
  facet normal 0.866028 -0.499996 0
    outer loop
      vertex 18.5087 -1.13342 -5.6
      vertex 18.3781 -1.35973 5.6
      vertex 18.3781 -1.35973 -5.6
    endloop
  endfacet
  facet normal 0.994522 0.104527 0
    outer loop
      vertex 18.7774 0.13066 5.6
      vertex 18.7501 0.39055 -5.6
      vertex 18.7501 0.39055 5.6
    endloop
  endfacet
  facet normal 0.994522 0.104527 0
    outer loop
      vertex 18.7501 0.39055 -5.6
      vertex 18.7774 0.13066 5.6
      vertex 18.7774 0.13066 -5.6
    endloop
  endfacet
  facet normal 0.913545 -0.406737 0
    outer loop
      vertex 18.5087 -1.13342 5.6
      vertex 18.615 -0.894691 -5.6
      vertex 18.615 -0.894691 5.6
    endloop
  endfacet
  facet normal 0.913545 -0.406737 0
    outer loop
      vertex 18.615 -0.894691 -5.6
      vertex 18.5087 -1.13342 5.6
      vertex 18.5087 -1.13342 -5.6
    endloop
  endfacet
  facet normal 0.994522 -0.104527 0
    outer loop
      vertex 18.7501 -0.39055 5.6
      vertex 18.7774 -0.13066 -5.6
      vertex 18.7774 -0.13066 5.6
    endloop
  endfacet
  facet normal 0.994522 -0.104527 0
    outer loop
      vertex 18.7774 -0.13066 -5.6
      vertex 18.7501 -0.39055 5.6
      vertex 18.7501 -0.39055 -5.6
    endloop
  endfacet
  facet normal 1 -0 0
    outer loop
      vertex 18.7774 -0.13066 5.6
      vertex 18.7774 0.13066 -5.6
      vertex 18.7774 0.13066 5.6
    endloop
  endfacet
  facet normal 1 0 0
    outer loop
      vertex 18.7774 0.13066 -5.6
      vertex 18.7774 -0.13066 5.6
      vertex 18.7774 -0.13066 -5.6
    endloop
  endfacet
  facet normal 0.866028 0.499996 0
    outer loop
      vertex 18.5087 1.13342 5.6
      vertex 18.3781 1.35973 -5.6
      vertex 18.3781 1.35973 5.6
    endloop
  endfacet
  facet normal 0.866028 0.499996 0
    outer loop
      vertex 18.3781 1.35973 -5.6
      vertex 18.5087 1.13342 5.6
      vertex 18.5087 1.13342 -5.6
    endloop
  endfacet
  facet normal 0.809014 -0.58779 0
    outer loop
      vertex 18.2245 -1.57114 5.6
      vertex 18.3781 -1.35973 -5.6
      vertex 18.3781 -1.35973 5.6
    endloop
  endfacet
  facet normal 0.809014 -0.58779 0
    outer loop
      vertex 18.3781 -1.35973 -5.6
      vertex 18.2245 -1.57114 5.6
      vertex 18.2245 -1.57114 -5.6
    endloop
  endfacet
  facet normal 0.743145 -0.669131 0
    outer loop
      vertex 18.0496 -1.76534 5.6
      vertex 18.2245 -1.57114 -5.6
      vertex 18.2245 -1.57114 5.6
    endloop
  endfacet
  facet normal 0.743145 -0.669131 0
    outer loop
      vertex 18.2245 -1.57114 -5.6
      vertex 18.0496 -1.76534 5.6
      vertex 18.0496 -1.76534 -5.6
    endloop
  endfacet
  facet normal 0.913545 0.406737 0
    outer loop
      vertex 18.615 0.894691 5.6
      vertex 18.5087 1.13342 -5.6
      vertex 18.5087 1.13342 5.6
    endloop
  endfacet
  facet normal 0.913545 0.406737 0
    outer loop
      vertex 18.5087 1.13342 -5.6
      vertex 18.615 0.894691 5.6
      vertex 18.615 0.894691 -5.6
    endloop
  endfacet
  facet normal 0.951058 0.309014 0
    outer loop
      vertex 18.6958 0.646161 5.6
      vertex 18.615 0.894691 -5.6
      vertex 18.615 0.894691 5.6
    endloop
  endfacet
  facet normal 0.951058 0.309014 0
    outer loop
      vertex 18.615 0.894691 -5.6
      vertex 18.6958 0.646161 5.6
      vertex 18.6958 0.646161 -5.6
    endloop
  endfacet
  facet normal 0.978147 0.207915 0
    outer loop
      vertex 18.7501 0.39055 5.6
      vertex 18.6958 0.646161 -5.6
      vertex 18.6958 0.646161 5.6
    endloop
  endfacet
  facet normal 0.978147 0.207915 0
    outer loop
      vertex 18.6958 0.646161 -5.6
      vertex 18.7501 0.39055 5.6
      vertex 18.7501 0.39055 -5.6
    endloop
  endfacet
  facet normal 0.978147 -0.207915 0
    outer loop
      vertex 18.6958 -0.646161 5.6
      vertex 18.7501 -0.39055 -5.6
      vertex 18.7501 -0.39055 5.6
    endloop
  endfacet
  facet normal 0.978147 -0.207915 0
    outer loop
      vertex 18.7501 -0.39055 -5.6
      vertex 18.6958 -0.646161 5.6
      vertex 18.6958 -0.646161 -5.6
    endloop
  endfacet
  facet normal 0.951058 -0.309014 0
    outer loop
      vertex 18.615 -0.894691 5.6
      vertex 18.6958 -0.646161 -5.6
      vertex 18.6958 -0.646161 5.6
    endloop
  endfacet
  facet normal 0.951058 -0.309014 0
    outer loop
      vertex 18.6958 -0.646161 -5.6
      vertex 18.615 -0.894691 5.6
      vertex 18.615 -0.894691 -5.6
    endloop
  endfacet
endsolid OpenSCAD_Model
